<svg xmlns="http://www.w3.org/2000/svg" viewBox="0 0 1600 1100" role="img" aria-labelledby="title desc">
  <title id="title">Dettaglio bouquet e partecipazione</title>
  <desc id="desc">Still life con fiori chiari, nastro e carta.</desc>
  <defs>
    <linearGradient id="paper" x1="0" y1="0" x2="1" y2="1">
      <stop offset="0%" stop-color="#f7f1e8"/>
      <stop offset="100%" stop-color="#e8dccb"/>
    </linearGradient>
  </defs>
  <rect width="1600" height="1100" fill="#ebe0d0"/>
  <rect x="170" y="120" width="1260" height="860" rx="36" fill="url(#paper)"/>
  <rect x="290" y="220" width="620" height="520" rx="18" fill="#fcf8f3" stroke="#dbc8ac" stroke-width="4"/>
  <text x="600" y="330" text-anchor="middle" font-family="Cormorant Garamond, serif" font-size="86" fill="#7f674f">Michela &amp; Guglielmo</text>
  <text x="600" y="410" text-anchor="middle" font-family="Montserrat, sans-serif" font-size="28" letter-spacing="8" fill="#9b8267">2 GENNAIO 2026</text>
  <text x="600" y="500" text-anchor="middle" font-family="Cormorant Garamond, serif" font-size="54" fill="#7f674f">Villa dei Colli, Spoleto</text>
  <g transform="translate(1035 312)">
    <ellipse cx="150" cy="406" rx="180" ry="48" fill="#c9b39a" opacity="0.28"/>
    <path d="M112 206C112 340 132 392 160 474" stroke="#7b8e5b" stroke-width="18" stroke-linecap="round"/>
    <path d="M158 188C170 326 198 368 226 448" stroke="#809862" stroke-width="14" stroke-linecap="round"/>
    <path d="M76 206C62 306 74 362 100 452" stroke="#6d8454" stroke-width="14" stroke-linecap="round"/>
    <g fill="#f7ede2">
      <circle cx="64" cy="176" r="70"/><circle cx="150" cy="124" r="74"/><circle cx="242" cy="186" r="76"/>
      <circle cx="184" cy="264" r="74"/><circle cx="92" cy="270" r="68"/>
    </g>
    <g fill="#efd3d0" opacity="0.9">
      <circle cx="42" cy="192" r="24"/><circle cx="154" cy="108" r="22"/><circle cx="222" cy="208" r="24"/><circle cx="176" cy="288" r="22"/>
    </g>
    <path d="M70 424C126 454 182 454 236 424" fill="none" stroke="#c7a56a" stroke-width="14" stroke-linecap="round"/>
  </g>
</svg>
